<?xml version="1.0" encoding="utf-8"?>
<!-- Generator: Adobe Illustrator 21.1.0, SVG Export Plug-In . SVG Version: 6.00 Build 0)  -->
<svg version="1.1" id="Layer_1" xmlns="http://www.w3.org/2000/svg" xmlns:xlink="http://www.w3.org/1999/xlink" x="0px" y="0px"
	 viewBox="0 0 90.6 85.3" style="enable-background:new 0 0 90.6 85.3;" xml:space="preserve">
<style type="text/css">
	.st0{fill-rule:evenodd;clip-rule:evenodd;fill:#14426F;}
	.st1{fill-rule:evenodd;clip-rule:evenodd;fill:#1B75BC;}
	.st2{fill-rule:evenodd;clip-rule:evenodd;fill:#4D72A2;}
	.st3{fill-rule:evenodd;clip-rule:evenodd;fill:#7D9FD3;}
	.st4{fill-rule:evenodd;clip-rule:evenodd;fill:#A5BAE0;}
	.st5{fill:#14426F;}
	.st6{fill:#27AAE1;}
	.st7{fill:#1B75BC;}
	.st8{fill-rule:evenodd;clip-rule:evenodd;fill:#FFFFFF;}
	.st9{fill:#FFFFFF;}
	.st10{fill-rule:evenodd;clip-rule:evenodd;}
</style>
<g>
	<path class="st8" d="M57.8,19.6h16.4c10.1,0,13.7-7.5,13.7-16.3H55.2L57.8,19.6z"/>
	<path class="st8" d="M50.7,3.3h-8.4c-20.2,0-37,15.4-39.2,35h16.5c2.1-10.6,11.5-18.7,22.7-18.7h10.9L50.7,3.3z"/>
	<path class="st8" d="M2.9,43C3,53.4,7.1,62.9,13.8,69.9l10.5-12.7c-3.1-3.9-5-8.8-5-14.1H2.9z"/>
	<path class="st8" d="M17,73c6.9,5.8,15.7,9.3,25.3,9.3h5.5l-2.1-16.3h-3.4c-5.8,0-11-2.1-15.1-5.6L17,73z"/>
	<polygon class="st8" points="81.8,82.2 71.1,65.9 49.9,65.9 52.2,82.2 	"/>
</g>
</svg>
