<?xml version="1.0" encoding="utf-8"?>
<!-- Generator: Adobe Illustrator 21.1.0, SVG Export Plug-In . SVG Version: 6.00 Build 0)  -->
<svg version="1.1" id="Layer_1" xmlns="http://www.w3.org/2000/svg" xmlns:xlink="http://www.w3.org/1999/xlink" x="0px" y="0px"
	 viewBox="0 0 168 31.3" style="enable-background:new 0 0 168 31.3;" xml:space="preserve">
<style type="text/css">
	.st0{fill-rule:evenodd;clip-rule:evenodd;fill:#14426F;}
	.st1{fill-rule:evenodd;clip-rule:evenodd;fill:#1B75BC;}
	.st2{fill-rule:evenodd;clip-rule:evenodd;fill:#4D72A2;}
	.st3{fill-rule:evenodd;clip-rule:evenodd;fill:#7D9FD3;}
	.st4{fill-rule:evenodd;clip-rule:evenodd;fill:#A5BAE0;}
	.st5{fill:#14426F;}
	.st6{fill:#27AAE1;}
	.st7{fill:#1B75BC;}
	.st8{fill-rule:evenodd;clip-rule:evenodd;fill:#FFFFFF;}
	.st9{fill:#FFFFFF;}
	.st10{fill-rule:evenodd;clip-rule:evenodd;}
</style>
<g>
	<path class="st9" d="M13.7,6l7.2,19.4h-4.4L15,21H7.8l-1.5,4.3H2L9.3,6H13.7z M13.9,17.9l-2.4-7.1h-0.1l-2.5,7.1H13.9z"/>
	<path class="st9" d="M31,6c1.2,0,2.4,0.2,3.5,0.6c1.1,0.4,2,1,2.8,1.8c0.8,0.8,1.4,1.8,1.8,3c0.4,1.2,0.7,2.6,0.7,4.2
		c0,1.4-0.2,2.7-0.5,3.9c-0.4,1.2-0.9,2.2-1.6,3.1s-1.6,1.6-2.7,2c-1.1,0.5-2.4,0.7-3.9,0.7h-8.4V6H31z M30.7,21.8
		c0.6,0,1.2-0.1,1.8-0.3c0.6-0.2,1.1-0.5,1.5-1s0.8-1.1,1.1-1.8c0.3-0.7,0.4-1.6,0.4-2.7c0-1-0.1-1.9-0.3-2.6
		c-0.2-0.8-0.5-1.5-0.9-2c-0.4-0.6-1-1-1.7-1.3c-0.7-0.3-1.6-0.4-2.6-0.4h-3v12.2H30.7z"/>
	<path class="st9" d="M48.7,6l4.5,13.3h0.1L57.6,6h6v19.4h-4V11.6h-0.1l-4.7,13.7h-3.3l-4.7-13.6h-0.1v13.6h-4V6H48.7z"/>
	<path class="st9" d="M71.6,6v19.4h-4.3V6H71.6z"/>
	<path class="st9" d="M79.6,6l8.1,13h0.1V6h4v19.4h-4.3l-8.1-13h-0.1v13h-4V6H79.6z"/>
</g>
<path class="st9" d="M101.6,2.1v27.1h-2.9V2.1H101.6z"/>
<path class="st9" d="M119.4,11.2c-0.3-0.4-0.6-0.8-1-1.1s-0.8-0.5-1.3-0.7c-0.5-0.2-1-0.3-1.5-0.3c-1,0-1.8,0.2-2.4,0.6
	c-0.7,0.4-1.2,0.9-1.6,1.5c-0.4,0.6-0.7,1.3-0.9,2.1c-0.2,0.8-0.3,1.6-0.3,2.5c0,0.8,0.1,1.6,0.3,2.4c0.2,0.8,0.5,1.5,0.9,2.1
	c0.4,0.6,1,1.1,1.6,1.5c0.7,0.4,1.5,0.6,2.4,0.6c1.3,0,2.3-0.4,3.1-1.2c0.7-0.8,1.2-1.8,1.3-3.1h4.1c-0.1,1.2-0.4,2.3-0.8,3.3
	c-0.5,1-1,1.8-1.8,2.5c-0.7,0.7-1.6,1.2-2.6,1.6c-1,0.4-2.1,0.5-3.3,0.5c-1.5,0-2.8-0.3-4-0.8c-1.2-0.5-2.2-1.2-3-2.1
	c-0.8-0.9-1.4-2-1.9-3.2c-0.4-1.2-0.7-2.5-0.7-3.9c0-1.4,0.2-2.8,0.7-4c0.4-1.2,1.1-2.3,1.9-3.2c0.8-0.9,1.8-1.6,3-2.2
	c1.2-0.5,2.5-0.8,4-0.8c1.1,0,2.1,0.2,3,0.5c0.9,0.3,1.8,0.8,2.5,1.3c0.8,0.6,1.4,1.3,1.9,2.2c0.5,0.9,0.8,1.9,0.9,3h-4.1
	C119.9,12,119.7,11.6,119.4,11.2z"/>
<path class="st9" d="M135.4,25.1c-0.9,0.4-1.9,0.6-3,0.6c-0.9,0-1.7-0.1-2.5-0.4c-0.8-0.3-1.4-0.6-2-1.1c-0.6-0.5-1-1.1-1.3-1.8
	c-0.3-0.7-0.5-1.5-0.5-2.5c0-0.7,0.1-1.3,0.4-1.9s0.6-1.1,1-1.5s0.9-0.9,1.4-1.2c0.5-0.4,1.1-0.7,1.6-0.9c-0.5-0.6-1-1.3-1.3-1.9
	s-0.5-1.4-0.5-2.2c0-0.7,0.1-1.3,0.4-1.8c0.3-0.5,0.7-1,1.1-1.4c0.5-0.4,1-0.7,1.6-0.9c0.6-0.2,1.2-0.3,1.9-0.3
	c0.7,0,1.4,0.1,2.1,0.3c0.6,0.2,1.2,0.5,1.7,0.9c0.5,0.4,0.9,0.9,1.1,1.5c0.3,0.6,0.4,1.2,0.4,2c0,1.1-0.3,2.1-1,2.9
	c-0.7,0.8-1.5,1.4-2.5,2l2.5,3.1c0.2-0.4,0.4-0.7,0.5-1.1c0.1-0.4,0.2-0.8,0.2-1.2h3.3c-0.1,0.9-0.3,1.7-0.6,2.5
	c-0.3,0.8-0.7,1.6-1.3,2.3l3.9,4.6h-4.7l-1.6-1.9C137.1,24.2,136.2,24.8,135.4,25.1z M131.5,17.3c-0.3,0.2-0.6,0.4-0.9,0.7
	c-0.3,0.3-0.5,0.6-0.6,0.9s-0.2,0.7-0.2,1.1c0,0.3,0.1,0.7,0.2,1c0.2,0.3,0.4,0.6,0.6,0.8c0.3,0.2,0.5,0.4,0.9,0.5
	c0.3,0.1,0.7,0.2,1,0.2c0.7,0,1.3-0.2,1.8-0.5s1-0.7,1.5-1.2l-3.3-4C132.2,17,131.8,17.1,131.5,17.3z M135.1,8.9
	c-0.4-0.4-0.8-0.5-1.2-0.5c-0.5,0-0.9,0.2-1.2,0.5c-0.3,0.3-0.5,0.7-0.5,1.2c0,0.6,0.2,1.1,0.5,1.6c0.3,0.4,0.7,0.9,1,1.3
	c0.5-0.3,1-0.7,1.4-1.1c0.4-0.4,0.6-0.9,0.6-1.7C135.6,9.7,135.4,9.3,135.1,8.9z"/>
<path class="st9" d="M157.4,6l7.2,19.4h-4.4l-1.5-4.3h-7.2l-1.5,4.3h-4.3L153,6H157.4z M157.6,17.9l-2.4-7.1h-0.1l-2.5,7.1H157.6z"
	/>
</svg>
