<?xml version="1.0" encoding="utf-8"?>
<!-- Generator: Adobe Illustrator 21.1.0, SVG Export Plug-In . SVG Version: 6.00 Build 0)  -->
<svg version="1.1" id="Layer_1" xmlns="http://www.w3.org/2000/svg" xmlns:xlink="http://www.w3.org/1999/xlink" x="0px" y="0px"
	 viewBox="0 0 204.7 137.9" style="enable-background:new 0 0 204.7 137.9;" xml:space="preserve">
<style type="text/css">
	.st0{fill-rule:evenodd;clip-rule:evenodd;fill:#14426F;}
	.st1{fill-rule:evenodd;clip-rule:evenodd;fill:#1B75BC;}
	.st2{fill-rule:evenodd;clip-rule:evenodd;fill:#4D72A2;}
	.st3{fill-rule:evenodd;clip-rule:evenodd;fill:#7D9FD3;}
	.st4{fill-rule:evenodd;clip-rule:evenodd;fill:#A5BAE0;}
	.st5{fill:#14426F;}
	.st6{fill:#27AAE1;}
	.st7{fill:#1B75BC;}
	.st8{fill-rule:evenodd;clip-rule:evenodd;fill:#FFFFFF;}
	.st9{fill:#FFFFFF;}
	.st10{fill-rule:evenodd;clip-rule:evenodd;}
</style>
<g>
	<path class="st0" d="M116.7,24.5h19.1c11.7,0,15.9-8.7,15.9-19h-37.9L116.7,24.5z"/>
	<path class="st1" d="M108.5,5.6h-9.7c-23.5,0-42.9,17.9-45.5,40.6h19.2c2.4-12.3,13.4-21.7,26.4-21.7h12.6L108.5,5.6z"/>
	<path class="st2" d="M53,51.7c0.1,12.1,4.9,23.1,12.6,31.2l12.2-14.8C74.2,63.6,72,57.9,72,51.7H53z"/>
	<path class="st3" d="M69.4,86.5c8,6.7,18.2,10.8,29.4,10.8h6.4l-2.4-19h-4c-6.7,0-12.8-2.5-17.5-6.6L69.4,86.5z"/>
	<polygon class="st4" points="144.6,97.2 132.2,78.2 107.6,78.2 110.3,97.2 	"/>
</g>
<g>
	<path class="st5" d="M15,110c-0.2-0.3-0.4-0.5-0.7-0.8s-0.6-0.4-0.9-0.5s-0.7-0.2-1.1-0.2c-0.7,0-1.2,0.1-1.7,0.4
		c-0.5,0.3-0.9,0.6-1.1,1.1s-0.5,0.9-0.6,1.5s-0.2,1.1-0.2,1.7c0,0.6,0.1,1.1,0.2,1.7s0.3,1,0.6,1.5s0.7,0.8,1.1,1s1,0.4,1.7,0.4
		c0.9,0,1.6-0.3,2.2-0.8c0.5-0.6,0.8-1.3,0.9-2.2h2.9c-0.1,0.9-0.3,1.6-0.6,2.3s-0.7,1.3-1.3,1.8c-0.5,0.5-1.1,0.9-1.8,1.1
		c-0.7,0.3-1.5,0.4-2.3,0.4c-1,0-2-0.2-2.8-0.5c-0.8-0.4-1.5-0.9-2.1-1.5c-0.6-0.6-1-1.4-1.3-2.2s-0.5-1.8-0.5-2.8
		c0-1,0.2-2,0.5-2.8s0.7-1.6,1.3-2.3c0.6-0.6,1.3-1.2,2.1-1.5c0.8-0.4,1.8-0.6,2.8-0.6c0.8,0,1.5,0.1,2.1,0.3
		c0.7,0.2,1.3,0.5,1.8,0.9c0.5,0.4,1,0.9,1.3,1.5c0.3,0.6,0.6,1.3,0.6,2.1h-2.9C15.3,110.6,15.1,110.3,15,110z"/>
	<path class="st5" d="M27.2,106.4l5.1,13.6h-3.1l-1-3H23l-1.1,3h-3l5.2-13.6H27.2z M27.3,114.8l-1.7-5h0l-1.8,5H27.3z"/>
	<path class="st5" d="M39.9,106.4c0.7,0,1.2,0.1,1.8,0.2s1,0.3,1.4,0.6s0.7,0.6,0.9,1s0.3,1,0.3,1.6c0,0.7-0.2,1.3-0.5,1.7
		c-0.3,0.5-0.8,0.8-1.4,1.1c0.8,0.2,1.5,0.7,1.9,1.3c0.4,0.6,0.6,1.3,0.6,2.2c0,0.7-0.1,1.3-0.4,1.8c-0.3,0.5-0.6,0.9-1.1,1.2
		c-0.5,0.3-1,0.6-1.5,0.7c-0.6,0.2-1.2,0.2-1.8,0.2h-6.6v-13.6H39.9z M39.5,111.9c0.5,0,1-0.1,1.3-0.4s0.5-0.7,0.5-1.2
		c0-0.3-0.1-0.6-0.2-0.8c-0.1-0.2-0.3-0.4-0.5-0.5c-0.2-0.1-0.4-0.2-0.7-0.2c-0.2,0-0.5-0.1-0.8-0.1h-2.8v3.2H39.5z M39.7,117.7
		c0.3,0,0.6,0,0.8-0.1c0.3-0.1,0.5-0.2,0.7-0.3s0.4-0.3,0.5-0.5c0.1-0.2,0.2-0.5,0.2-0.9c0-0.7-0.2-1.2-0.6-1.5
		c-0.4-0.3-0.9-0.4-1.6-0.4h-3.3v3.7H39.7z"/>
	<path class="st5" d="M53.7,106.4l5.1,13.6h-3.1l-1-3h-5.1l-1.1,3h-3l5.2-13.6H53.7z M53.9,114.8l-1.7-5h0l-1.8,5H53.9z"/>
	<path class="st5" d="M63,106.4v11.1h6.6v2.5H60v-13.6H63z"/>
	<path class="st5" d="M81.5,106.4v2.5h-7.2v2.9h6.6v2.3h-6.6v3.3h7.4v2.5H71.3v-13.6H81.5z"/>
	<path class="st5" d="M86.7,106.4V120h-3v-13.6H86.7z"/>
	<path class="st5" d="M96.7,106.4c0.6,0,1.2,0.1,1.7,0.3c0.5,0.2,0.9,0.5,1.3,0.8s0.6,0.7,0.8,1.2c0.2,0.5,0.3,0.9,0.3,1.5
		c0,0.8-0.2,1.5-0.5,2.1c-0.3,0.6-0.9,1-1.7,1.3v0c0.4,0.1,0.7,0.3,0.9,0.5c0.2,0.2,0.4,0.5,0.6,0.7c0.2,0.3,0.3,0.6,0.3,0.9
		c0.1,0.3,0.1,0.7,0.1,1c0,0.2,0,0.5,0,0.8c0,0.3,0,0.6,0.1,0.9c0,0.3,0.1,0.6,0.2,0.9c0.1,0.3,0.2,0.5,0.3,0.7h-3
		c-0.2-0.4-0.3-0.9-0.3-1.5c0-0.6-0.1-1.2-0.2-1.7c-0.1-0.7-0.3-1.2-0.6-1.6c-0.3-0.3-0.9-0.5-1.6-0.5h-3v5.3h-3v-13.6H96.7z
		 M95.6,112.6c0.7,0,1.2-0.2,1.5-0.5c0.3-0.3,0.5-0.8,0.5-1.5c0-0.7-0.2-1.1-0.5-1.4c-0.3-0.3-0.9-0.4-1.5-0.4h-3.3v3.8H95.6z"/>
	<path class="st5" d="M103,110.4c0.3-0.9,0.7-1.6,1.3-2.3c0.6-0.6,1.3-1.2,2.1-1.5c0.8-0.4,1.8-0.6,2.8-0.6c1.1,0,2,0.2,2.8,0.6
		s1.5,0.9,2.1,1.5c0.6,0.6,1,1.4,1.3,2.3s0.5,1.8,0.5,2.8c0,1-0.2,1.9-0.5,2.8s-0.7,1.6-1.3,2.2c-0.6,0.6-1.3,1.1-2.1,1.5
		c-0.8,0.4-1.8,0.5-2.8,0.5c-1,0-2-0.2-2.8-0.5c-0.8-0.4-1.5-0.9-2.1-1.5c-0.6-0.6-1-1.4-1.3-2.2s-0.5-1.8-0.5-2.8
		C102.6,112.3,102.7,111.3,103,110.4z M105.8,114.9c0.1,0.5,0.3,1,0.6,1.5s0.7,0.8,1.1,1s1,0.4,1.7,0.4c0.7,0,1.2-0.1,1.7-0.4
		c0.5-0.3,0.9-0.6,1.1-1s0.5-0.9,0.6-1.5s0.2-1.1,0.2-1.7c0-0.6-0.1-1.2-0.2-1.7s-0.3-1.1-0.6-1.5s-0.7-0.8-1.1-1.1
		c-0.5-0.3-1-0.4-1.7-0.4c-0.7,0-1.2,0.1-1.7,0.4c-0.5,0.3-0.9,0.6-1.1,1.1s-0.5,0.9-0.6,1.5s-0.2,1.1-0.2,1.7
		C105.6,113.8,105.6,114.4,105.8,114.9z"/>
	<path class="st6" d="M129.1,119.9c-0.6,0.3-1.3,0.4-2.1,0.4c-0.6,0-1.2-0.1-1.7-0.3c-0.5-0.2-1-0.4-1.4-0.8
		c-0.4-0.4-0.7-0.8-0.9-1.3c-0.2-0.5-0.3-1.1-0.3-1.7c0-0.5,0.1-0.9,0.2-1.3c0.2-0.4,0.4-0.8,0.7-1.1c0.3-0.3,0.6-0.6,1-0.9
		s0.8-0.5,1.1-0.7c-0.4-0.4-0.7-0.9-0.9-1.3s-0.4-1-0.4-1.6c0-0.5,0.1-0.9,0.3-1.3c0.2-0.4,0.5-0.7,0.8-1s0.7-0.5,1.1-0.6
		s0.9-0.2,1.3-0.2c0.5,0,1,0.1,1.5,0.2c0.5,0.1,0.8,0.3,1.2,0.6c0.3,0.3,0.6,0.6,0.8,1c0.2,0.4,0.3,0.9,0.3,1.4c0,0.8-0.2,1.5-0.7,2
		c-0.5,0.5-1,1-1.7,1.4l1.8,2.2c0.1-0.3,0.2-0.5,0.3-0.8c0.1-0.3,0.1-0.6,0.2-0.8h2.4c-0.1,0.6-0.2,1.2-0.4,1.8
		c-0.2,0.6-0.5,1.1-0.9,1.6l2.8,3.2H132l-1.1-1.4C130.3,119.2,129.7,119.6,129.1,119.9z M126.4,114.4c-0.2,0.1-0.4,0.3-0.6,0.5
		c-0.2,0.2-0.3,0.4-0.4,0.6c-0.1,0.2-0.2,0.5-0.2,0.8c0,0.2,0.1,0.5,0.2,0.7c0.1,0.2,0.3,0.4,0.4,0.6c0.2,0.2,0.4,0.3,0.6,0.4
		c0.2,0.1,0.5,0.1,0.7,0.1c0.5,0,0.9-0.1,1.3-0.3c0.4-0.2,0.7-0.5,1-0.9l-2.3-2.8C126.9,114.1,126.6,114.2,126.4,114.4z
		 M128.9,108.4c-0.2-0.3-0.5-0.4-0.9-0.4s-0.6,0.1-0.9,0.3c-0.2,0.2-0.4,0.5-0.4,0.9c0,0.4,0.1,0.8,0.3,1.1c0.2,0.3,0.5,0.6,0.7,0.9
		c0.4-0.2,0.7-0.5,1-0.8c0.3-0.3,0.4-0.7,0.4-1.2C129.3,109,129.2,108.7,128.9,108.4z"/>
	<path class="st7" d="M148.5,106.4l5.1,13.6h-3.1l-1-3h-5.1l-1.1,3h-3l5.2-13.6H148.5z M148.7,114.8l-1.7-5h0l-1.8,5H148.7z"/>
	<path class="st7" d="M157.1,116.7c0.2,0.3,0.4,0.6,0.7,0.8c0.3,0.2,0.6,0.3,1,0.4c0.4,0.1,0.8,0.1,1.1,0.1c0.3,0,0.6,0,0.9-0.1
		c0.3,0,0.6-0.1,0.9-0.3c0.3-0.1,0.5-0.3,0.7-0.5c0.2-0.2,0.3-0.5,0.3-0.9c0-0.4-0.1-0.7-0.4-0.9c-0.2-0.2-0.5-0.4-0.9-0.6
		c-0.4-0.2-0.8-0.3-1.3-0.4s-1-0.2-1.5-0.4c-0.5-0.1-1-0.3-1.5-0.5c-0.5-0.2-0.9-0.4-1.3-0.7c-0.4-0.3-0.7-0.7-0.9-1.1
		c-0.2-0.4-0.4-1-0.4-1.6c0-0.7,0.1-1.3,0.4-1.8c0.3-0.5,0.7-0.9,1.2-1.3c0.5-0.3,1-0.6,1.6-0.8c0.6-0.2,1.2-0.2,1.8-0.2
		c0.7,0,1.4,0.1,2.1,0.2c0.7,0.2,1.2,0.4,1.7,0.8c0.5,0.4,0.9,0.8,1.2,1.4c0.3,0.6,0.4,1.2,0.4,2h-2.9c0-0.4-0.1-0.7-0.3-1
		s-0.3-0.5-0.6-0.6c-0.2-0.2-0.5-0.3-0.8-0.3c-0.3-0.1-0.7-0.1-1-0.1c-0.2,0-0.5,0-0.7,0.1c-0.2,0.1-0.5,0.1-0.7,0.3
		c-0.2,0.1-0.4,0.3-0.5,0.5c-0.1,0.2-0.2,0.4-0.2,0.7c0,0.3,0.1,0.5,0.2,0.6c0.1,0.2,0.3,0.3,0.6,0.5c0.3,0.1,0.7,0.3,1.2,0.4
		c0.5,0.1,1.2,0.3,2.1,0.5c0.3,0.1,0.6,0.1,1.1,0.3s0.9,0.3,1.3,0.6c0.4,0.3,0.8,0.7,1.2,1.2c0.3,0.5,0.5,1.1,0.5,1.9
		c0,0.6-0.1,1.2-0.4,1.7c-0.2,0.5-0.6,1-1.1,1.4s-1.1,0.7-1.8,0.9s-1.5,0.3-2.5,0.3c-0.8,0-1.5-0.1-2.2-0.3s-1.3-0.5-1.9-0.9
		c-0.5-0.4-1-0.9-1.3-1.5c-0.3-0.6-0.5-1.3-0.5-2.2h2.9C156.9,116,157,116.4,157.1,116.7z"/>
	<path class="st7" d="M167.1,110.4c0.3-0.9,0.7-1.6,1.3-2.3c0.6-0.6,1.3-1.2,2.1-1.5c0.8-0.4,1.8-0.6,2.8-0.6c1.1,0,2,0.2,2.8,0.6
		s1.5,0.9,2.1,1.5c0.6,0.6,1,1.4,1.3,2.3s0.5,1.8,0.5,2.8c0,1-0.2,1.9-0.5,2.8s-0.7,1.6-1.3,2.2c-0.6,0.6-1.3,1.1-2.1,1.5
		c-0.8,0.4-1.8,0.5-2.8,0.5c-1,0-2-0.2-2.8-0.5c-0.8-0.4-1.5-0.9-2.1-1.5c-0.6-0.6-1-1.4-1.3-2.2s-0.5-1.8-0.5-2.8
		C166.6,112.3,166.8,111.3,167.1,110.4z M169.8,114.9c0.1,0.5,0.3,1,0.6,1.5s0.7,0.8,1.1,1s1,0.4,1.7,0.4c0.7,0,1.2-0.1,1.7-0.4
		c0.5-0.3,0.9-0.6,1.1-1s0.5-0.9,0.6-1.5s0.2-1.1,0.2-1.7c0-0.6-0.1-1.2-0.2-1.7s-0.3-1.1-0.6-1.5s-0.7-0.8-1.1-1.1
		c-0.5-0.3-1-0.4-1.7-0.4c-0.7,0-1.2,0.1-1.7,0.4c-0.5,0.3-0.9,0.6-1.1,1.1s-0.5,0.9-0.6,1.5s-0.2,1.1-0.2,1.7
		C169.6,113.8,169.7,114.4,169.8,114.9z"/>
	<path class="st7" d="M190.8,110c-0.2-0.3-0.4-0.5-0.7-0.8s-0.6-0.4-0.9-0.5s-0.7-0.2-1.1-0.2c-0.7,0-1.2,0.1-1.7,0.4
		c-0.5,0.3-0.9,0.6-1.1,1.1s-0.5,0.9-0.6,1.5s-0.2,1.1-0.2,1.7c0,0.6,0.1,1.1,0.2,1.7s0.3,1,0.6,1.5s0.7,0.8,1.1,1s1,0.4,1.7,0.4
		c0.9,0,1.6-0.3,2.2-0.8c0.5-0.6,0.8-1.3,0.9-2.2h2.9c-0.1,0.9-0.3,1.6-0.6,2.3s-0.7,1.3-1.3,1.8c-0.5,0.5-1.1,0.9-1.8,1.1
		c-0.7,0.3-1.5,0.4-2.3,0.4c-1,0-2-0.2-2.8-0.5c-0.8-0.4-1.5-0.9-2.1-1.5c-0.6-0.6-1-1.4-1.3-2.2s-0.5-1.8-0.5-2.8
		c0-1,0.2-2,0.5-2.8s0.7-1.6,1.3-2.3c0.6-0.6,1.3-1.2,2.1-1.5c0.8-0.4,1.8-0.6,2.8-0.6c0.8,0,1.5,0.1,2.1,0.3
		c0.7,0.2,1.3,0.5,1.8,0.9c0.5,0.4,1,0.9,1.3,1.5c0.3,0.6,0.6,1.3,0.6,2.1h-2.9C191.1,110.6,191,110.3,190.8,110z"/>
	<path class="st7" d="M199.1,117.1v2.9h-3v-2.9H199.1z"/>
</g>
<g>
	<path class="st6" d="M35.5,125.9v0.9h-4.3v2.5h4v0.9h-4v2.7h4.3v0.9h-5.4v-7.7H35.5z"/>
	<path class="st6" d="M40.7,127c-0.3-0.2-0.8-0.4-1.3-0.4c-0.2,0-0.4,0-0.6,0.1s-0.4,0.1-0.6,0.2c-0.2,0.1-0.3,0.2-0.4,0.4
		s-0.1,0.4-0.1,0.6c0,0.2,0.1,0.4,0.2,0.6c0.1,0.1,0.3,0.3,0.6,0.4s0.5,0.2,0.8,0.2s0.6,0.1,0.9,0.2c0.3,0.1,0.6,0.2,0.9,0.3
		c0.3,0.1,0.6,0.2,0.8,0.4s0.4,0.4,0.6,0.6c0.1,0.3,0.2,0.6,0.2,1c0,0.4-0.1,0.8-0.3,1.1c-0.2,0.3-0.4,0.5-0.7,0.7s-0.6,0.3-1,0.4
		s-0.7,0.1-1.1,0.1c-0.4,0-0.8-0.1-1.2-0.2c-0.4-0.1-0.7-0.3-1-0.5c-0.3-0.2-0.5-0.5-0.7-0.8c-0.2-0.3-0.3-0.7-0.3-1.2h1
		c0,0.3,0.1,0.6,0.2,0.8c0.1,0.2,0.3,0.4,0.5,0.6c0.2,0.2,0.4,0.3,0.7,0.3c0.3,0.1,0.6,0.1,0.8,0.1c0.2,0,0.5,0,0.7-0.1
		s0.4-0.1,0.6-0.2c0.2-0.1,0.3-0.2,0.5-0.4c0.1-0.2,0.2-0.4,0.2-0.7c0-0.3-0.1-0.5-0.2-0.6s-0.3-0.3-0.6-0.4
		c-0.2-0.1-0.5-0.2-0.8-0.3s-0.6-0.1-0.9-0.2c-0.3-0.1-0.6-0.1-0.9-0.2c-0.3-0.1-0.6-0.2-0.8-0.4s-0.4-0.3-0.6-0.6
		c-0.1-0.2-0.2-0.5-0.2-0.9c0-0.4,0.1-0.7,0.2-1s0.4-0.5,0.6-0.7c0.3-0.2,0.6-0.3,0.9-0.4s0.7-0.1,1-0.1c0.4,0,0.8,0,1.1,0.1
		c0.3,0.1,0.6,0.2,0.9,0.4c0.3,0.2,0.5,0.5,0.6,0.8c0.1,0.3,0.2,0.7,0.2,1.1h-1C41.2,127.6,41,127.2,40.7,127z"/>
	<path class="st6" d="M48.5,127c-0.4-0.3-0.9-0.4-1.4-0.4c-0.5,0-0.9,0.1-1.2,0.3s-0.6,0.4-0.8,0.7c-0.2,0.3-0.4,0.6-0.5,1
		c-0.1,0.4-0.2,0.8-0.2,1.2c0,0.4,0.1,0.9,0.2,1.3c0.1,0.4,0.3,0.7,0.5,1c0.2,0.3,0.5,0.5,0.8,0.7c0.3,0.2,0.7,0.3,1.2,0.3
		c0.3,0,0.6-0.1,0.9-0.2c0.3-0.1,0.5-0.3,0.7-0.5s0.3-0.4,0.4-0.7c0.1-0.3,0.2-0.6,0.2-0.9h1c-0.1,1-0.4,1.7-1,2.3
		c-0.6,0.5-1.3,0.8-2.3,0.8c-0.6,0-1.1-0.1-1.6-0.3c-0.4-0.2-0.8-0.5-1.1-0.9c-0.3-0.4-0.5-0.8-0.7-1.3c-0.1-0.5-0.2-1-0.2-1.6
		s0.1-1.1,0.2-1.6c0.2-0.5,0.4-0.9,0.7-1.3s0.7-0.7,1.1-0.9s1-0.3,1.6-0.3c0.4,0,0.8,0.1,1.1,0.2c0.4,0.1,0.7,0.3,1,0.5
		c0.3,0.2,0.5,0.5,0.7,0.8c0.2,0.3,0.3,0.7,0.4,1.1h-1C49.1,127.7,48.9,127.3,48.5,127z"/>
	<path class="st6" d="M55.3,125.9c0.7,0,1.3,0.2,1.7,0.5s0.6,0.9,0.6,1.5c0,0.5-0.1,0.9-0.3,1.2c-0.2,0.4-0.6,0.6-1,0.7v0
		c0.2,0,0.4,0.1,0.5,0.2s0.3,0.2,0.3,0.4c0.1,0.1,0.1,0.3,0.2,0.5s0.1,0.4,0.1,0.5c0,0.2,0,0.4,0,0.6c0,0.2,0,0.4,0.1,0.6
		c0,0.2,0.1,0.4,0.1,0.5c0.1,0.2,0.1,0.3,0.2,0.4h-1.1c-0.1-0.1-0.1-0.2-0.1-0.3s0-0.3,0-0.5c0-0.2,0-0.4,0-0.5c0-0.2,0-0.4-0.1-0.6
		c0-0.2-0.1-0.4-0.1-0.5c0-0.2-0.1-0.3-0.2-0.4c-0.1-0.1-0.2-0.2-0.4-0.3s-0.4-0.1-0.6-0.1h-2.5v3.3h-1v-7.7H55.3z M55.5,129.4
		c0.2,0,0.4-0.1,0.6-0.2c0.2-0.1,0.3-0.2,0.4-0.4s0.1-0.4,0.1-0.7c0-0.4-0.1-0.7-0.3-1c-0.2-0.2-0.6-0.4-1-0.4h-2.6v2.7h2.1
		C55,129.5,55.3,129.5,55.5,129.4z"/>
	<path class="st6" d="M60.1,125.9v7.7h-1v-7.7H60.1z"/>
	<path class="st6" d="M61,126.8v-0.9h6.2v0.9h-2.6v6.9h-1v-6.9H61z"/>
	<path class="st6" d="M67.9,128.3c0.2-0.5,0.4-0.9,0.7-1.3c0.3-0.4,0.7-0.7,1.2-0.9c0.5-0.2,1-0.3,1.6-0.3s1.2,0.1,1.6,0.3
		c0.5,0.2,0.8,0.5,1.2,0.9s0.5,0.8,0.7,1.3c0.2,0.5,0.2,1,0.2,1.5s-0.1,1-0.2,1.5c-0.2,0.5-0.4,0.9-0.7,1.3
		c-0.3,0.4-0.7,0.7-1.2,0.9c-0.5,0.2-1,0.3-1.6,0.3s-1.2-0.1-1.6-0.3c-0.5-0.2-0.8-0.5-1.2-0.9c-0.3-0.4-0.5-0.8-0.7-1.3
		c-0.2-0.5-0.2-1-0.2-1.5S67.7,128.8,67.9,128.3z M68.8,131c0.1,0.4,0.3,0.7,0.5,1c0.2,0.3,0.5,0.5,0.8,0.7c0.3,0.2,0.7,0.3,1.2,0.3
		c0.5,0,0.9-0.1,1.2-0.3c0.3-0.2,0.6-0.4,0.8-0.7c0.2-0.3,0.4-0.6,0.5-1c0.1-0.4,0.2-0.8,0.2-1.2s0-0.8-0.2-1.2
		c-0.1-0.4-0.3-0.7-0.5-1c-0.2-0.3-0.5-0.5-0.8-0.7c-0.3-0.2-0.7-0.3-1.2-0.3c-0.5,0-0.9,0.1-1.2,0.3c-0.3,0.2-0.6,0.4-0.8,0.7
		c-0.2,0.3-0.4,0.6-0.5,1c-0.1,0.4-0.2,0.8-0.2,1.2S68.7,130.6,68.8,131z"/>
	<path class="st6" d="M79.9,125.9c0.7,0,1.3,0.2,1.7,0.5s0.6,0.9,0.6,1.5c0,0.5-0.1,0.9-0.3,1.2c-0.2,0.4-0.6,0.6-1,0.7v0
		c0.2,0,0.4,0.1,0.5,0.2s0.3,0.2,0.3,0.4c0.1,0.1,0.1,0.3,0.2,0.5s0.1,0.4,0.1,0.5c0,0.2,0,0.4,0,0.6c0,0.2,0,0.4,0.1,0.6
		c0,0.2,0.1,0.4,0.1,0.5c0.1,0.2,0.1,0.3,0.2,0.4h-1.1c-0.1-0.1-0.1-0.2-0.1-0.3s0-0.3,0-0.5c0-0.2,0-0.4,0-0.5c0-0.2,0-0.4-0.1-0.6
		c0-0.2-0.1-0.4-0.1-0.5c0-0.2-0.1-0.3-0.2-0.4c-0.1-0.1-0.2-0.2-0.4-0.3s-0.4-0.1-0.6-0.1h-2.5v3.3h-1v-7.7H79.9z M80.1,129.4
		c0.2,0,0.4-0.1,0.6-0.2c0.2-0.1,0.3-0.2,0.4-0.4s0.1-0.4,0.1-0.7c0-0.4-0.1-0.7-0.3-1c-0.2-0.2-0.6-0.4-1-0.4h-2.6v2.7h2.1
		C79.7,129.5,79.9,129.5,80.1,129.4z"/>
	<path class="st6" d="M84.8,125.9v7.7h-1v-7.7H84.8z"/>
	<path class="st6" d="M86.3,128.3c0.2-0.5,0.4-0.9,0.7-1.3c0.3-0.4,0.7-0.7,1.2-0.9c0.5-0.2,1-0.3,1.6-0.3s1.2,0.1,1.6,0.3
		c0.5,0.2,0.8,0.5,1.2,0.9s0.5,0.8,0.7,1.3c0.2,0.5,0.2,1,0.2,1.5s-0.1,1-0.2,1.5c-0.2,0.5-0.4,0.9-0.7,1.3
		c-0.3,0.4-0.7,0.7-1.2,0.9c-0.5,0.2-1,0.3-1.6,0.3s-1.2-0.1-1.6-0.3c-0.5-0.2-0.8-0.5-1.2-0.9c-0.3-0.4-0.5-0.8-0.7-1.3
		c-0.2-0.5-0.2-1-0.2-1.5S86.2,128.8,86.3,128.3z M87.3,131c0.1,0.4,0.3,0.7,0.5,1c0.2,0.3,0.5,0.5,0.8,0.7c0.3,0.2,0.7,0.3,1.2,0.3
		c0.5,0,0.9-0.1,1.2-0.3c0.3-0.2,0.6-0.4,0.8-0.7c0.2-0.3,0.4-0.6,0.5-1c0.1-0.4,0.2-0.8,0.2-1.2s0-0.8-0.2-1.2
		c-0.1-0.4-0.3-0.7-0.5-1c-0.2-0.3-0.5-0.5-0.8-0.7c-0.3-0.2-0.7-0.3-1.2-0.3c-0.5,0-0.9,0.1-1.2,0.3c-0.3,0.2-0.6,0.4-0.8,0.7
		c-0.2,0.3-0.4,0.6-0.5,1c-0.1,0.4-0.2,0.8-0.2,1.2S87.2,130.6,87.3,131z"/>
	<path class="st6" d="M100.4,125.9c1.2,0,2.1,0.3,2.8,0.9c0.6,0.6,1,1.5,1,2.8c0,0.6-0.1,1.2-0.2,1.7c-0.1,0.5-0.4,0.9-0.7,1.3
		c-0.3,0.3-0.7,0.6-1.2,0.8c-0.5,0.2-1,0.3-1.7,0.3h-2.7v-7.7H100.4z M100.5,132.8c0.1,0,0.3,0,0.4,0c0.2,0,0.4-0.1,0.6-0.1
		c0.2-0.1,0.4-0.2,0.6-0.3s0.4-0.3,0.5-0.5c0.2-0.2,0.3-0.5,0.4-0.8c0.1-0.3,0.1-0.7,0.1-1.2c0-0.5,0-0.9-0.1-1.2
		c-0.1-0.4-0.2-0.7-0.4-0.9c-0.2-0.3-0.5-0.5-0.8-0.6c-0.3-0.1-0.7-0.2-1.2-0.2h-1.7v6H100.5z"/>
	<path class="st6" d="M110.7,125.9v0.9h-4.3v2.5h4v0.9h-4v2.7h4.3v0.9h-5.4v-7.7H110.7z"/>
	<path class="st6" d="M118.2,125.9l3,7.7h-1.1l-0.8-2.3H116l-0.9,2.3h-1.1l3-7.7H118.2z M119,130.5l-1.3-3.6h0l-1.3,3.6H119z"/>
	<path class="st6" d="M124.8,125.9c0.2,0,0.3,0,0.5,0c0.2,0,0.4,0,0.6,0c0.2,0,0.4,0,0.5,0.1s0.3,0.1,0.4,0.2
		c0.3,0.2,0.5,0.4,0.6,0.6c0.2,0.3,0.3,0.6,0.3,1c0,0.4-0.1,0.8-0.3,1.1c-0.2,0.3-0.5,0.5-0.8,0.7v0c0.5,0.1,0.8,0.3,1.1,0.6
		c0.3,0.3,0.4,0.7,0.4,1.2c0,0.3-0.1,0.6-0.2,0.8c-0.1,0.3-0.2,0.5-0.4,0.7c-0.2,0.2-0.4,0.4-0.7,0.5c-0.3,0.1-0.6,0.2-1,0.2H122
		v-7.7H124.8z M125.1,129.3c0.6,0,1-0.1,1.3-0.3c0.3-0.2,0.4-0.5,0.4-0.9c0-0.3,0-0.5-0.1-0.6c-0.1-0.2-0.2-0.3-0.4-0.4
		s-0.3-0.1-0.5-0.2c-0.2,0-0.4,0-0.6,0H123v2.5H125.1z M125.6,132.8c0.5,0,0.8-0.1,1.1-0.4c0.3-0.2,0.4-0.6,0.4-1
		c0-0.3,0-0.5-0.1-0.6s-0.2-0.3-0.4-0.4c-0.2-0.1-0.3-0.2-0.5-0.2c-0.2,0-0.4-0.1-0.6-0.1H123v2.7H125.6z"/>
	<path class="st6" d="M129.2,128.3c0.2-0.5,0.4-0.9,0.7-1.3c0.3-0.4,0.7-0.7,1.2-0.9c0.5-0.2,1-0.3,1.6-0.3s1.2,0.1,1.6,0.3
		c0.5,0.2,0.8,0.5,1.2,0.9s0.5,0.8,0.7,1.3c0.2,0.5,0.2,1,0.2,1.5s-0.1,1-0.2,1.5c-0.2,0.5-0.4,0.9-0.7,1.3
		c-0.3,0.4-0.7,0.7-1.2,0.9c-0.5,0.2-1,0.3-1.6,0.3s-1.2-0.1-1.6-0.3c-0.5-0.2-0.8-0.5-1.2-0.9c-0.3-0.4-0.5-0.8-0.7-1.3
		c-0.2-0.5-0.2-1-0.2-1.5S129.1,128.8,129.2,128.3z M130.2,131c0.1,0.4,0.3,0.7,0.5,1c0.2,0.3,0.5,0.5,0.8,0.7
		c0.3,0.2,0.7,0.3,1.2,0.3c0.5,0,0.9-0.1,1.2-0.3c0.3-0.2,0.6-0.4,0.8-0.7c0.2-0.3,0.4-0.6,0.5-1c0.1-0.4,0.2-0.8,0.2-1.2
		s0-0.8-0.2-1.2c-0.1-0.4-0.3-0.7-0.5-1c-0.2-0.3-0.5-0.5-0.8-0.7c-0.3-0.2-0.7-0.3-1.2-0.3c-0.5,0-0.9,0.1-1.2,0.3
		c-0.3,0.2-0.6,0.4-0.8,0.7c-0.2,0.3-0.4,0.6-0.5,1c-0.1,0.4-0.2,0.8-0.2,1.2S130.1,130.6,130.2,131z"/>
	<path class="st6" d="M142.3,133.6c-0.4,0.2-0.9,0.3-1.4,0.3c-0.6,0-1.1-0.1-1.5-0.3s-0.8-0.5-1.2-0.9c-0.3-0.4-0.6-0.8-0.7-1.2
		s-0.2-1-0.2-1.5c0-0.6,0.1-1.1,0.2-1.6c0.2-0.5,0.4-1,0.7-1.3c0.3-0.4,0.7-0.7,1.1-0.9c0.5-0.2,1-0.3,1.6-0.3c0.4,0,0.8,0,1.2,0.1
		c0.4,0.1,0.7,0.3,1,0.5c0.3,0.2,0.5,0.5,0.7,0.8c0.2,0.3,0.3,0.7,0.4,1.2h-1c-0.1-0.3-0.1-0.6-0.3-0.8c-0.1-0.2-0.3-0.4-0.5-0.5
		c-0.2-0.1-0.4-0.2-0.7-0.3c-0.3-0.1-0.5-0.1-0.8-0.1c-0.5,0-0.9,0.1-1.2,0.3c-0.3,0.2-0.6,0.4-0.8,0.7c-0.2,0.3-0.4,0.7-0.5,1.1
		c-0.1,0.4-0.2,0.8-0.2,1.2c0,0.4,0.1,0.8,0.2,1.2c0.1,0.4,0.3,0.7,0.5,1s0.5,0.5,0.8,0.7c0.3,0.2,0.7,0.3,1.1,0.3
		c0.4,0,0.8-0.1,1.1-0.2s0.6-0.3,0.8-0.5c0.2-0.2,0.4-0.5,0.5-0.8c0.1-0.3,0.2-0.6,0.1-1H141v-0.9h3.4v4.1h-0.7l-0.3-1
		C143.1,133.1,142.8,133.4,142.3,133.6z"/>
	<path class="st6" d="M149.1,125.9l3,7.7H151l-0.8-2.3h-3.3l-0.9,2.3H145l3-7.7H149.1z M149.8,130.5l-1.3-3.6h0l-1.3,3.6H149.8z"/>
	<path class="st6" d="M155.5,125.9c1.2,0,2.1,0.3,2.8,0.9c0.6,0.6,1,1.5,1,2.8c0,0.6-0.1,1.2-0.2,1.7c-0.1,0.5-0.4,0.9-0.7,1.3
		c-0.3,0.3-0.7,0.6-1.2,0.8c-0.5,0.2-1,0.3-1.7,0.3h-2.7v-7.7H155.5z M155.6,132.8c0.1,0,0.3,0,0.4,0c0.2,0,0.4-0.1,0.6-0.1
		c0.2-0.1,0.4-0.2,0.6-0.3s0.4-0.3,0.5-0.5c0.2-0.2,0.3-0.5,0.4-0.8c0.1-0.3,0.1-0.7,0.1-1.2c0-0.5,0-0.9-0.1-1.2
		c-0.1-0.4-0.2-0.7-0.4-0.9c-0.2-0.3-0.5-0.5-0.8-0.6c-0.3-0.1-0.7-0.2-1.2-0.2h-1.7v6H155.6z"/>
	<path class="st6" d="M160.3,128.3c0.2-0.5,0.4-0.9,0.7-1.3c0.3-0.4,0.7-0.7,1.2-0.9c0.5-0.2,1-0.3,1.6-0.3s1.2,0.1,1.6,0.3
		c0.5,0.2,0.8,0.5,1.2,0.9s0.5,0.8,0.7,1.3c0.2,0.5,0.2,1,0.2,1.5s-0.1,1-0.2,1.5c-0.2,0.5-0.4,0.9-0.7,1.3
		c-0.3,0.4-0.7,0.7-1.2,0.9c-0.5,0.2-1,0.3-1.6,0.3s-1.2-0.1-1.6-0.3c-0.5-0.2-0.8-0.5-1.2-0.9c-0.3-0.4-0.5-0.8-0.7-1.3
		c-0.2-0.5-0.2-1-0.2-1.5S160.2,128.8,160.3,128.3z M161.3,131c0.1,0.4,0.3,0.7,0.5,1c0.2,0.3,0.5,0.5,0.8,0.7
		c0.3,0.2,0.7,0.3,1.2,0.3c0.5,0,0.9-0.1,1.2-0.3c0.3-0.2,0.6-0.4,0.8-0.7c0.2-0.3,0.4-0.6,0.5-1c0.1-0.4,0.2-0.8,0.2-1.2
		s0-0.8-0.2-1.2c-0.1-0.4-0.3-0.7-0.5-1c-0.2-0.3-0.5-0.5-0.8-0.7c-0.3-0.2-0.7-0.3-1.2-0.3c-0.5,0-0.9,0.1-1.2,0.3
		c-0.3,0.2-0.6,0.4-0.8,0.7c-0.2,0.3-0.4,0.6-0.5,1c-0.1,0.4-0.2,0.8-0.2,1.2S161.2,130.6,161.3,131z"/>
	<path class="st6" d="M172.6,127c-0.3-0.2-0.8-0.4-1.3-0.4c-0.2,0-0.4,0-0.6,0.1s-0.4,0.1-0.6,0.2c-0.2,0.1-0.3,0.2-0.4,0.4
		s-0.1,0.4-0.1,0.6c0,0.2,0.1,0.4,0.2,0.6c0.1,0.1,0.3,0.3,0.6,0.4s0.5,0.2,0.8,0.2s0.6,0.1,0.9,0.2c0.3,0.1,0.6,0.2,0.9,0.3
		c0.3,0.1,0.6,0.2,0.8,0.4s0.4,0.4,0.6,0.6c0.1,0.3,0.2,0.6,0.2,1c0,0.4-0.1,0.8-0.3,1.1c-0.2,0.3-0.4,0.5-0.7,0.7s-0.6,0.3-1,0.4
		s-0.7,0.1-1.1,0.1c-0.4,0-0.8-0.1-1.2-0.2c-0.4-0.1-0.7-0.3-1-0.5c-0.3-0.2-0.5-0.5-0.7-0.8c-0.2-0.3-0.3-0.7-0.3-1.2h1
		c0,0.3,0.1,0.6,0.2,0.8c0.1,0.2,0.3,0.4,0.5,0.6c0.2,0.2,0.4,0.3,0.7,0.3c0.3,0.1,0.6,0.1,0.8,0.1c0.2,0,0.5,0,0.7-0.1
		s0.4-0.1,0.6-0.2c0.2-0.1,0.3-0.2,0.5-0.4c0.1-0.2,0.2-0.4,0.2-0.7c0-0.3-0.1-0.5-0.2-0.6s-0.3-0.3-0.6-0.4
		c-0.2-0.1-0.5-0.2-0.8-0.3s-0.6-0.1-0.9-0.2c-0.3-0.1-0.6-0.1-0.9-0.2c-0.3-0.1-0.6-0.2-0.8-0.4s-0.4-0.3-0.6-0.6
		c-0.1-0.2-0.2-0.5-0.2-0.9c0-0.4,0.1-0.7,0.2-1s0.4-0.5,0.6-0.7c0.3-0.2,0.6-0.3,0.9-0.4s0.7-0.1,1-0.1c0.4,0,0.8,0,1.1,0.1
		c0.3,0.1,0.6,0.2,0.9,0.4c0.3,0.2,0.5,0.5,0.6,0.8c0.1,0.3,0.2,0.7,0.2,1.1h-1C173.2,127.6,173,127.2,172.6,127z"/>
</g>
</svg>
